<svg width="76" height="68" viewBox="0 0 76 68" fill="none" xmlns="http://www.w3.org/2000/svg">
<g opacity="0.5">
<path opacity="0.5" d="M42.6362 67.9999H33.3632C32.5437 67.9991 31.7579 67.6732 31.1784 67.0937C30.5989 66.5142 30.273 65.7284 30.2722 64.9089V49.4549H22.5452C22.2394 49.4547 21.9406 49.364 21.6863 49.194C21.4321 49.0241 21.2339 48.7826 21.1169 48.5001C20.9998 48.2176 20.9691 47.9068 21.0286 47.6068C21.0881 47.3069 21.2352 47.0313 21.4512 46.8149L36.9052 31.3609C37.1952 31.0716 37.5881 30.9092 37.9977 30.9092C38.4073 30.9092 38.8002 31.0716 39.0902 31.3609L54.5452 46.8149C54.7611 47.0311 54.9081 47.3064 54.9677 47.6061C55.0273 47.9058 54.9969 48.2164 54.8802 48.4987C54.7635 48.7811 54.5658 49.0226 54.312 49.1928C54.0582 49.3629 53.7598 49.4541 53.4542 49.4549H45.7272V64.9089C45.7264 65.7284 45.4005 66.5142 44.821 67.0937C44.2415 67.6732 43.4558 67.9991 42.6362 67.9999ZM26.2762 46.3639H31.8182C32.2279 46.3642 32.6207 46.527 32.9104 46.8167C33.2001 47.1064 33.363 47.4992 33.3632 47.9089V64.9089H42.6362V47.9089C42.6365 47.4992 42.7994 47.1064 43.089 46.8167C43.3787 46.527 43.7716 46.3642 44.1812 46.3639H49.7232L38.0002 34.6399L26.2762 46.3639Z" fill="#303030"/>
<path opacity="0.5" d="M14.8215 49.3619C14.7627 49.3619 14.704 49.3589 14.6455 49.3529C10.8118 48.9245 7.27708 47.0777 4.73606 44.1754C2.19504 41.273 0.831563 37.5252 0.913659 33.6686C0.995755 29.812 2.51749 26.1255 5.17971 23.334C7.84194 20.5424 11.4521 18.8477 15.3005 18.5829C16.248 13.8833 18.6305 9.59354 22.1194 6.30549C25.6083 3.01743 30.0316 0.893107 34.7791 0.225607C39.5265 -0.441892 44.3641 0.380328 48.6244 2.57883C52.8847 4.77733 56.3578 8.24376 58.5645 12.4999C62.8393 12.9606 66.8203 14.8951 69.8241 17.9714C72.8279 21.0477 74.667 25.0737 75.0257 29.3583C75.3843 33.6428 74.2402 37.9186 71.7897 41.4514C69.3392 44.9843 65.7352 47.5538 61.5965 48.7189C61.2013 48.8283 60.7789 48.7762 60.4221 48.5741C60.0653 48.3721 59.8034 48.0365 59.694 47.6414C59.5846 47.2462 59.6366 46.8237 59.8387 46.467C60.0408 46.1102 60.3763 45.8483 60.7715 45.7389C64.2794 44.7486 67.323 42.5475 69.3619 39.5261C71.4009 36.5047 72.3033 32.8586 71.909 29.235C71.5147 25.6114 69.8492 22.2447 67.2081 19.7326C64.5671 17.2205 61.1213 15.7254 57.4825 15.5129C57.2029 15.4979 56.9326 15.4071 56.7006 15.2504C56.4687 15.0936 56.2837 14.8767 56.1655 14.6229C54.329 10.7158 51.2815 7.50525 47.4754 5.46777C43.6693 3.43029 39.3076 2.67458 35.038 3.31283C30.7683 3.95108 26.8183 5.94926 23.7744 9.0107C20.7306 12.0721 18.7551 16.0336 18.1415 20.3069C18.089 20.6754 17.9054 21.0127 17.6244 21.2568C17.3434 21.5009 16.9837 21.6355 16.6115 21.6359C13.4297 21.5696 10.3449 22.733 7.99938 24.884C5.65385 27.035 4.22832 30.0077 4.01957 33.1834C3.81081 36.359 4.83492 39.4928 6.87869 41.9323C8.92246 44.3718 11.8284 45.9291 14.9915 46.2799C15.3833 46.3246 15.7431 46.5174 15.9975 46.8188C16.2518 47.1201 16.3814 47.5073 16.3597 47.901C16.3379 48.2948 16.1666 48.6653 15.8806 48.9369C15.5947 49.2084 15.2158 49.3605 14.8215 49.3619Z" fill="#303030"/>
</g>
</svg>
